<!--?xml version="1.0" encoding="utf-8"?-->
<!-- Generator: Adobe Illustrator 18.1.1, SVG Export Plug-In . SVG Version: 6.00 Build 0)  -->

<svg version="1.1" id="_x32_" xmlns="http://www.w3.org/2000/svg" xmlns:xlink="http://www.w3.org/1999/xlink" x="0px" y="0px" viewBox="0 0 512 512" style="width: 256px; height: 256px; opacity: 1;" xml:space="preserve">
<style type="text/css">
	.st0{fill:#4B4B4B;}
</style>
<g>
	<path class="st0" d="M108.36,428.924c0,11.214,9.114,20.353,20.336,20.353h139.598c11.214,0,20.344-9.139,20.344-20.353V270.59
		H108.36V428.924z" style="fill: rgb(75, 75, 75);"></path>
	<path class="st0" d="M462.887,215.16c-16.103-16.21-38.589-26.046-63.06-25.948c-9.155-0.057-18.54,1.444-27.9,4.209
		c8.072-12.56,12.83-27.44,12.83-43.536c0-30.542-16.842-57.104-41.731-70.919C330.467,33.371,288.744,0,239.262,0
		c-18.721,0-36.293,4.815-51.558,13.174c-11.715-7.309-25.628-11.501-40.484-11.501c-37.022,0.107-67.981,25.94-75.627,60.664
		c-28.343,11.091-48.425,38.802-48.425,71.124c0,21.238,8.581,40.377,22.388,54.192v241.295c0,45.923,37.235,83.051,83.158,83.051
		h139.63c45.816,0,83.043-37.128,83.043-83.051v-35.874c3.987,0.418,7.958,0.623,12.034,0.623c26.366,0,53.659-7.851,76.776-23.946
		c11.509-7.958,21.968-18.097,30.122-30.336c8.261-12.24,14.225-26.67,17.047-42.674c0.944-5.858,1.468-11.616,1.468-17.367
		C488.834,254.281,479.113,231.468,462.887,215.16z M320.008,428.949c0,28.458-23.216,51.673-51.665,51.673h-139.63
		c-28.556,0-51.78-23.215-51.78-51.673V209.507h243.076V428.949z M344.495,178.129H91.994c-9.409-1.568-17.67-6.062-24.159-12.552
		c-8.261-8.261-13.29-19.458-13.29-32.116c0-21.338,14.857-39.221,34.734-44.036l10.976-2.609l0.943-11.304
		c1.887-23.732,21.756-42.46,46.021-42.46c11.402,0,21.658,4.076,29.705,10.877l9.204,7.744l9.836-6.801
		c12.338-8.581,27.088-13.495,43.298-13.495c37.03,0,67.891,26.464,74.79,61.403l1.673,8.163l7.531,3.232
		c17.785,7.645,30.123,25.208,30.123,45.709C353.379,160.451,350.139,170.073,344.495,178.129z M446.053,289.736
		c-1.674,10.139-5.34,18.72-10.459,26.349c-7.539,11.296-18.622,20.295-31.484,26.464c-12.864,6.169-27.399,9.418-40.69,9.311
		c-4.183,0-8.162-0.205-12.034-0.828v-98.54c4.503-4.078,8.901-7.424,13.191-10.246c12.855-8.163,24.676-11.198,35.25-11.198
		c13.495,0,24.996,5.126,33.355,13.601c8.483,8.474,13.815,20.295,13.815,34.725C446.997,282.73,446.677,286.176,446.053,289.736z" style="fill: rgb(75, 75, 75);"></path>
</g>
</svg>
