<!--?xml version="1.0" encoding="utf-8"?-->
<!-- Generator: Adobe Illustrator 15.1.0, SVG Export Plug-In . SVG Version: 6.00 Build 0)  -->

<svg version="1.1" id="_x32_" xmlns="http://www.w3.org/2000/svg" xmlns:xlink="http://www.w3.org/1999/xlink" x="0px" y="0px" width="512px" height="512px" viewBox="0 0 512 512" style="width: 256px; height: 256px; opacity: 1;" xml:space="preserve">
<style type="text/css">

	.st0{fill:#4B4B4B;}

</style>
<g>
	<path class="st0" d="M120.796,169.319c-57.625,18.219-101.25,51.094-120.797,79.813c19.719,29,63.953,62.172,122.328,80.297
		c14.656-22.734,23.172-49.766,23.172-78.844C145.499,220.475,136.405,192.538,120.796,169.319z M78.499,252.725
		c-8.328,0-15.063-6.75-15.063-15.063c0-8.344,6.734-15.078,15.063-15.078s15.078,6.734,15.078,15.078
		C93.577,245.975,86.827,252.725,78.499,252.725z" style="fill: rgb(0, 0, 0);"></path>
	<path class="st0" d="M497.405,251.256c-1.047-3.234-1.047-6.734,0-9.984l13.813-42.891c2.031-6.313,0.031-13.219-5.047-17.484
		c-5.094-4.25-12.25-4.984-18.094-1.875l-81.328,43.313c-40.094-29.016-80.078-47.234-118.563-57.234
		c-0.609-7.703-2.688-17.563-8.688-25.078c-9.438-11.766-69.125,5.453-98.172,16.766c-15.719,1.594-30.828,4.406-45.172,8.125
		c15.594,24.828,24.656,54.203,24.656,85.672c0,30.406-8.438,58.875-23.094,83.172c21.297,5.406,44.234,8.766,68.344,9.219
		c0.922,1.406,2.063,2.703,3.438,3.797l32.047,25.594c6.813,5.438,16.703,4.547,22.438-2.016l4.578-5.266
		c3.406-3.906,4.75-9.219,3.594-14.281c-1.141-5.078-4.656-9.281-9.422-11.344l-1.328-0.578
		c47.938-8.016,98.859-28.297,149.891-66.25l76.781,40.891c5.844,3.109,13,2.375,18.094-1.891c5.078-4.25,7.078-11.172,5.047-17.469
		L497.405,251.256z" style="fill: rgb(0, 0, 0);"></path>
</g>
</svg>
