<!--?xml version="1.0" encoding="utf-8"?-->
<!-- Generator: Adobe Illustrator 18.1.1, SVG Export Plug-In . SVG Version: 6.00 Build 0)  -->

<svg version="1.1" id="_x32_" xmlns="http://www.w3.org/2000/svg" xmlns:xlink="http://www.w3.org/1999/xlink" x="0px" y="0px" viewBox="0 0 512 512" style="width: 256px; height: 256px; opacity: 1;" xml:space="preserve">
<style type="text/css">
	.st0{fill:#4B4B4B;}
</style>
<g>
	<path class="st0" d="M255.996,0C145.058,0,55.138,89.929,55.138,200.866c0,68.454,34.648,128.363,86.55,165.174
		c47.356,33.594,57.811,41.609,74.462,73.4c13.174,25.147,34.541,69.279,34.541,69.279c1.004,2.008,3.052,3.281,5.306,3.281
		c2.244,0,4.31-1.274,5.313-3.281c0,0,21.368-44.132,34.541-69.279c16.642-31.791,27.106-39.806,74.454-73.4
		c51.91-36.811,86.558-96.72,86.558-165.174C456.862,89.929,366.925,0,255.996,0z M255.996,335.473
		c-74.331,0-134.599-60.268-134.599-134.608c0-74.339,60.268-134.607,134.599-134.607c74.339,0,134.606,60.268,134.606,134.607
		C390.602,275.205,330.335,335.473,255.996,335.473z" style="fill: rgb(0, 0, 0);"></path>
</g>
</svg>
